inDegrees=no
num_controls=7
num_derivatives=13
num_iterations=111
num_multipliers=7
num_parameters=0
num_slacks=7
num_states=26
objective=0.444912
objective_accelerations=0.057731
objective_balance=0.003519
objective_effort=0.023131
objective_height=0.355039
objective_ligament=0.005493
solver_duration=1606.333406
status=Solve_Succeeded
success=true
DataType=double
version=3
OpenSimVersion=4.5
endheader
time	/jointset/ground_pelvis/pelvis_tilt/value	/jointset/ground_pelvis/pelvis_tx/value	/jointset/ground_pelvis/pelvis_ty/value	/jointset/hip_l/hip_flexion_l/value	/jointset/hip_l/hip_adduction_l/value	/jointset/hip_l/hip_rotation_l/value	/jointset/back/lumbar_extension/value	/jointset/patellofemoral_l/patellar_flexion_l/value	/jointset/knee_l/knee_flexion_l/value	/jointset/knee_l/knee_adduction_l/value	/jointset/knee_l/knee_rotation_l/value	/jointset/ankle_l/ankle_angle_l/value	/jointset/subtalar_l/subtalar_angle_l/value	/jointset/ground_pelvis/pelvis_tilt/speed	/jointset/ground_pelvis/pelvis_tx/speed	/jointset/ground_pelvis/pelvis_ty/speed	/jointset/hip_l/hip_flexion_l/speed	/jointset/hip_l/hip_adduction_l/speed	/jointset/hip_l/hip_rotation_l/speed	/jointset/back/lumbar_extension/speed	/jointset/patellofemoral_l/patellar_flexion_l/speed	/jointset/knee_l/knee_flexion_l/speed	/jointset/knee_l/knee_adduction_l/speed	/jointset/knee_l/knee_rotation_l/speed	/jointset/ankle_l/ankle_angle_l/speed	/jointset/subtalar_l/subtalar_angle_l/speed	/forceset/tau_hip_flexion_l	/forceset/tau_hip_adduction_l	/forceset/tau_hip_rotation_l	/forceset/tau_knee_flexion_l	/forceset/tau_ankle_angle_l	/forceset/tau_subtalar_angle_l	/forceset/tau_lumbar_extension	lambda_cid13_p0	lambda_cid13_p1	lambda_cid13_p2	lambda_cid13_p3	lambda_cid13_p4	lambda_cid13_p5	lambda_cid14_p0	/jointset/ground_pelvis/pelvis_tilt/accel	/jointset/ground_pelvis/pelvis_tx/accel	/jointset/ground_pelvis/pelvis_ty/accel	/jointset/hip_l/hip_flexion_l/accel	/jointset/hip_l/hip_adduction_l/accel	/jointset/hip_l/hip_rotation_l/accel	/jointset/back/lumbar_extension/accel	/jointset/patellofemoral_l/patellar_flexion_l/accel	/jointset/knee_l/knee_flexion_l/accel	/jointset/knee_l/knee_adduction_l/accel	/jointset/knee_l/knee_rotation_l/accel	/jointset/ankle_l/ankle_angle_l/accel	/jointset/subtalar_l/subtalar_angle_l/accel	gamma_cid13_p0	gamma_cid13_p1	gamma_cid13_p2	gamma_cid13_p3	gamma_cid13_p4	gamma_cid13_p5	gamma_cid14_p0
1.5	-0.3697832991706688	-0.02401389681000499	0.7605182420378465	1.111699471013071	-0.4351662354818771	-0.211094426786939	-0.2259724742398521	0.8090472834753253	0.8090472834754145	-0.1298938536801927	-0.1462182501948339	0.129492364439008	-0.01880601666560873	0.6816283408982173	0.2732787282383304	0.5381106643397188	-2.471770142372542	0.2090293590378168	-0.7201796189133458	0.3134676202280455	-2.024646035630055	-2.024646035630461	-0.1334469884094342	0.1345265094001625	-0.4014934028969122	0.03454793324437103	-0.1759520732712788	0.03053094190916789	-0.008462760327027049	-0.2037015648803551	0.04297010248724404	0.04186605667469553	0.1694259664533244	-18.37711151750948	-17.89051600389442	5.858272383652929	-7.774729945847701	-520.3537066138091	-59.86382366921841	-24.76381735234677	0.6807687405287066	0.7154904342523993	-0.5164523887099559	-1.319597580495932	0.7173028390908999	-0.2059615883064741	1.485063621985679	-1.336571691393187	-1.33657169139318	0.1397680812548129	0.2227288779301088	-0.502508943560213	0.5218069771465125	5.181694304628076e-07	3.871902857052362e-07	-3.076085341387184e-06	-1.442177161968381e-07	7.408053976282008e-07	-6.116981463510449e-08	4.718416399348603e-07
1.51	-0.3629330271308489	-0.02124556187628825	0.7658724542520079	1.086917414344126	-0.4330417337086364	-0.2183041014913963	-0.2227648604227327	0.7887362861082285	0.7887362861083554	-0.131225422433308	-0.1448624500101481	0.1254525363088296	-0.0184364126763756	0.6883235796734628	0.2803561063144273	0.5326165099774526	-2.484297013245985	0.2158460899817886	-0.7216348395007123	0.3280233333574785	-2.037267282349214	-2.037267282349772	-0.1328775109930646	0.1366343210356419	-0.4063950514689228	0.0393772105466749	-0.1698091665440103	0.02944044418777396	-0.008137336621123528	-0.2010164284476637	0.04319962377312749	0.04129137101716965	0.1644575934313168	-18.08267318964941	-17.7042720798956	5.84204394494743	-7.722016558375131	-516.3314961885187	-60.20328380065982	-25.6836280608852	0.6485724157302419	0.6990406729360458	-0.5830469787381838	-1.167549017511935	0.6603152889700913	-0.09681298726848853	1.436053682661954	-1.182068315326689	-1.182068315349459	0.01398491037869239	0.2044313236516951	-0.4724034553944976	0.4642788087201442	4.979019357487048e-07	7.175956797445852e-07	-2.63039024810921e-06	-4.241019803401766e-08	7.147269206355519e-07	5.00124057579972e-08	4.589742300681502e-07
1.52	-0.3560188685093354	-0.01840741732608099	0.7711682949187959	1.062020425531096	-0.4308497732125717	-0.2255246305403907	-0.2194126437694714	0.7683076428433134	0.7683076428434719	-0.132551606944557	-0.1434856469056391	0.1213660095646566	-0.01801835777372985	0.6944056572370196	0.2872406515364317	0.5264363548650564	-2.494756571189164	0.2225211036025513	-0.7223504878207485	0.342388187456506	-2.048175215194349	-2.048175215195059	-0.132370140034668	0.1387270933629146	-0.4108331256958542	0.04423811592689174	-0.1636662598167457	0.02834994646638027	-0.007811912915290166	-0.1983312920149675	0.04342914505901177	0.04071668535964576	0.1594892204093052	-17.79077340462409	-17.51953806022187	5.828290281495791	-7.706238351948505	-512.3704767286904	-60.59940705371865	-26.60288686240595	0.5581364981909567	0.6769238634338977	-0.6536525387359515	-0.9061349944430227	0.6889593744490941	-0.05804713484046753	1.44689181590457	-0.9939089165882432	-0.9939089165882419	0.1273467896602036	0.2197210162887888	-0.4097940745443669	0.5281325927291095	4.78738916482397e-07	9.904500808144964e-07	-2.264214692710748e-06	3.979095068190072e-08	6.959308220125677e-07	1.437568594504304e-07	4.467207854899368e-07
1.53	-0.3490469675671226	-0.01550157062799128	0.7763989683848901	1.037029273667538	-0.4285917602472452	-0.2327498094958291	-0.2159179865027167	0.7477785226528281	0.7477785226528899	-0.1338722122641657	-0.1420887421441253	0.1172372858616932	-0.01755156537791936	0.6998674349024004	0.2938779941018254	0.519588398360824	-2.503107352299542	0.2290547164832599	-0.7225800976863067	0.3564893158676889	-2.057353942767809	-2.057353942768233	-0.1317463432957548	0.1406441142101325	-0.4148447707215462	0.049117646137649	-0.1576856775544244	0.02780371773429708	-0.007458853260534213	-0.1952318648567394	0.04305656281568347	0.03964946451012456	0.1545639390377421	-17.7136851577325	-17.06948240878388	5.756470810956054	-7.315367418337032	-508.4872703040995	-60.49920559652072	-27.52148932982006	0.5241583483016742	0.6495621590908037	-0.7167224148060524	-0.7445474096191204	0.6316093161551121	0.01075805984262264	1.383630849702947	-0.8357084393430393	-0.8357084393001823	0.03072994942975359	0.1758367672066308	-0.3867857202778882	0.4674591984151324	4.607494023793713e-07	1.20215655185438e-06	-1.982528646309267e-06	1.011603318604859e-07	6.848722504073519e-07	2.189736860234035e-07	4.35119679030751e-07
